<mxfile host="app.diagrams.net" modified="2021-06-03T09:08:20.022Z" agent="5.0 (Windows NT 10.0; Win64; x64) AppleWebKit/537.36 (KHTML, like Gecko) Chrome/90.0.4430.212 Safari/537.36" etag="thUo0vYBJnXFOM1x5Qdh" version="14.4.8" type="github">
  <diagram id="C5RBs43oDa-KdzZeNtuy" name="Page-1">
    <mxGraphModel dx="920" dy="868" grid="1" gridSize="10" guides="1" tooltips="1" connect="1" arrows="1" fold="1" page="1" pageScale="1" pageWidth="827" pageHeight="1169" math="0" shadow="0">
      <root>
        <mxCell id="WIyWlLk6GJQsqaUBKTNV-0" />
        <mxCell id="WIyWlLk6GJQsqaUBKTNV-1" parent="WIyWlLk6GJQsqaUBKTNV-0" />
        <mxCell id="0D1AlHed-BKCbmiTgBeb-50" value="" style="ellipse;whiteSpace=wrap;html=1;fillColor=none;strokeColor=#3333FF;strokeWidth=2;" vertex="1" parent="WIyWlLk6GJQsqaUBKTNV-1">
          <mxGeometry x="50" y="200" width="400" height="80" as="geometry" />
        </mxCell>
        <mxCell id="0D1AlHed-BKCbmiTgBeb-3" value="" style="edgeStyle=orthogonalEdgeStyle;rounded=0;orthogonalLoop=1;jettySize=auto;html=1;" edge="1" parent="WIyWlLk6GJQsqaUBKTNV-1" source="WIyWlLk6GJQsqaUBKTNV-3" target="0D1AlHed-BKCbmiTgBeb-2">
          <mxGeometry relative="1" as="geometry" />
        </mxCell>
        <mxCell id="WIyWlLk6GJQsqaUBKTNV-3" value="Sensori" style="rounded=1;whiteSpace=wrap;html=1;fontSize=12;glass=0;strokeWidth=1;shadow=0;fillColor=#d5e8d4;strokeColor=#82b366;" parent="WIyWlLk6GJQsqaUBKTNV-1" vertex="1">
          <mxGeometry x="40" y="40" width="120" height="40" as="geometry" />
        </mxCell>
        <mxCell id="0D1AlHed-BKCbmiTgBeb-5" value="" style="rounded=0;orthogonalLoop=1;jettySize=auto;html=1;entryX=0.5;entryY=0;entryDx=0;entryDy=0;" edge="1" parent="WIyWlLk6GJQsqaUBKTNV-1" source="0D1AlHed-BKCbmiTgBeb-0" target="0D1AlHed-BKCbmiTgBeb-7">
          <mxGeometry relative="1" as="geometry">
            <mxPoint x="300" y="140" as="targetPoint" />
          </mxGeometry>
        </mxCell>
        <mxCell id="0D1AlHed-BKCbmiTgBeb-0" value="Campagne di rilievo,&lt;br&gt;dati statistici istituzionali" style="rounded=1;whiteSpace=wrap;html=1;fontSize=12;glass=0;strokeWidth=1;shadow=0;fillColor=#d5e8d4;strokeColor=#82b366;" vertex="1" parent="WIyWlLk6GJQsqaUBKTNV-1">
          <mxGeometry x="210" y="40" width="120" height="40" as="geometry" />
        </mxCell>
        <mxCell id="0D1AlHed-BKCbmiTgBeb-9" value="" style="edgeStyle=orthogonalEdgeStyle;rounded=0;orthogonalLoop=1;jettySize=auto;html=1;entryX=0.5;entryY=0;entryDx=0;entryDy=0;" edge="1" parent="WIyWlLk6GJQsqaUBKTNV-1" source="0D1AlHed-BKCbmiTgBeb-1" target="0D1AlHed-BKCbmiTgBeb-7">
          <mxGeometry relative="1" as="geometry">
            <mxPoint x="432" y="150" as="targetPoint" />
            <Array as="points">
              <mxPoint x="420" y="130" />
              <mxPoint x="420" y="130" />
            </Array>
          </mxGeometry>
        </mxCell>
        <mxCell id="0D1AlHed-BKCbmiTgBeb-1" value="Report e dati&amp;nbsp; altri programmi" style="rounded=1;whiteSpace=wrap;html=1;fontSize=12;glass=0;strokeWidth=1;shadow=0;fillColor=#d5e8d4;strokeColor=#82b366;" vertex="1" parent="WIyWlLk6GJQsqaUBKTNV-1">
          <mxGeometry x="400" y="40" width="120" height="40" as="geometry" />
        </mxCell>
        <mxCell id="0D1AlHed-BKCbmiTgBeb-13" value="" style="edgeStyle=none;rounded=0;orthogonalLoop=1;jettySize=auto;html=1;" edge="1" parent="WIyWlLk6GJQsqaUBKTNV-1" target="0D1AlHed-BKCbmiTgBeb-11">
          <mxGeometry relative="1" as="geometry">
            <mxPoint x="195.92412764846415" y="287.9877248959213" as="sourcePoint" />
          </mxGeometry>
        </mxCell>
        <mxCell id="0D1AlHed-BKCbmiTgBeb-2" value="Dati in flusso continuo" style="shape=cylinder;whiteSpace=wrap;html=1;boundedLbl=1;backgroundOutline=1;rounded=1;shadow=0;strokeWidth=1;glass=0;" vertex="1" parent="WIyWlLk6GJQsqaUBKTNV-1">
          <mxGeometry x="58.75" y="115" width="82.5" height="70" as="geometry" />
        </mxCell>
        <mxCell id="0D1AlHed-BKCbmiTgBeb-14" value="" style="edgeStyle=none;rounded=0;orthogonalLoop=1;jettySize=auto;html=1;" edge="1" parent="WIyWlLk6GJQsqaUBKTNV-1" source="0D1AlHed-BKCbmiTgBeb-4" target="0D1AlHed-BKCbmiTgBeb-11">
          <mxGeometry relative="1" as="geometry" />
        </mxCell>
        <mxCell id="0D1AlHed-BKCbmiTgBeb-43" value="Servizi&lt;br&gt;interoperabili" style="edgeLabel;html=1;align=center;verticalAlign=middle;resizable=0;points=[];" vertex="1" connectable="0" parent="0D1AlHed-BKCbmiTgBeb-14">
          <mxGeometry x="-0.2084" y="1" relative="1" as="geometry">
            <mxPoint as="offset" />
          </mxGeometry>
        </mxCell>
        <mxCell id="0D1AlHed-BKCbmiTgBeb-4" value="Dati agg. periodico" style="shape=cylinder;whiteSpace=wrap;html=1;boundedLbl=1;backgroundOutline=1;rounded=1;shadow=0;strokeWidth=1;glass=0;" vertex="1" parent="WIyWlLk6GJQsqaUBKTNV-1">
          <mxGeometry x="210" y="110" width="110" height="80" as="geometry" />
        </mxCell>
        <mxCell id="0D1AlHed-BKCbmiTgBeb-6" value="" style="edgeStyle=orthogonalEdgeStyle;rounded=0;orthogonalLoop=1;jettySize=auto;html=1;entryX=0.5;entryY=0;entryDx=0;entryDy=0;exitX=0.5;exitY=1;exitDx=0;exitDy=0;" edge="1" parent="WIyWlLk6GJQsqaUBKTNV-1" source="0D1AlHed-BKCbmiTgBeb-0" target="0D1AlHed-BKCbmiTgBeb-4">
          <mxGeometry relative="1" as="geometry">
            <mxPoint x="250" y="90" as="sourcePoint" />
            <mxPoint x="310" y="150" as="targetPoint" />
          </mxGeometry>
        </mxCell>
        <mxCell id="0D1AlHed-BKCbmiTgBeb-21" value="" style="edgeStyle=none;rounded=0;orthogonalLoop=1;jettySize=auto;html=1;fillColor=#9E9E9E;entryX=0.83;entryY=0.025;entryDx=0;entryDy=0;entryPerimeter=0;" edge="1" parent="WIyWlLk6GJQsqaUBKTNV-1" source="0D1AlHed-BKCbmiTgBeb-7" target="0D1AlHed-BKCbmiTgBeb-11">
          <mxGeometry relative="1" as="geometry" />
        </mxCell>
        <mxCell id="0D1AlHed-BKCbmiTgBeb-44" value="Integrazione manuale&lt;br&gt;e digitalizzazione&lt;br&gt;sapere esperto" style="edgeLabel;html=1;align=center;verticalAlign=middle;resizable=0;points=[];" vertex="1" connectable="0" parent="0D1AlHed-BKCbmiTgBeb-21">
          <mxGeometry x="-0.2358" relative="1" as="geometry">
            <mxPoint x="-15.62" y="15.81" as="offset" />
          </mxGeometry>
        </mxCell>
        <mxCell id="0D1AlHed-BKCbmiTgBeb-7" value="Documentazione" style="shape=document;whiteSpace=wrap;html=1;boundedLbl=1;" vertex="1" parent="WIyWlLk6GJQsqaUBKTNV-1">
          <mxGeometry x="367" y="120" width="108" height="60" as="geometry" />
        </mxCell>
        <mxCell id="0D1AlHed-BKCbmiTgBeb-10" value="" style="rounded=0;orthogonalLoop=1;jettySize=auto;html=1;entryX=0.65;entryY=0.025;entryDx=0;entryDy=0;exitX=0.325;exitY=0.975;exitDx=0;exitDy=0;exitPerimeter=0;entryPerimeter=0;" edge="1" parent="WIyWlLk6GJQsqaUBKTNV-1" source="0D1AlHed-BKCbmiTgBeb-1" target="0D1AlHed-BKCbmiTgBeb-4">
          <mxGeometry relative="1" as="geometry">
            <mxPoint x="290" y="90" as="sourcePoint" />
            <mxPoint x="430" y="160" as="targetPoint" />
          </mxGeometry>
        </mxCell>
        <mxCell id="0D1AlHed-BKCbmiTgBeb-20" value="" style="edgeStyle=none;rounded=0;orthogonalLoop=1;jettySize=auto;html=1;fillColor=#9E9E9E;" edge="1" parent="WIyWlLk6GJQsqaUBKTNV-1" source="0D1AlHed-BKCbmiTgBeb-11" target="0D1AlHed-BKCbmiTgBeb-17">
          <mxGeometry relative="1" as="geometry" />
        </mxCell>
        <mxCell id="0D1AlHed-BKCbmiTgBeb-11" value="Spazializzazione e integrazione" style="shape=hexagon;perimeter=hexagonPerimeter2;whiteSpace=wrap;html=1;fixedSize=1;" vertex="1" parent="WIyWlLk6GJQsqaUBKTNV-1">
          <mxGeometry x="40" y="295" width="280" height="50" as="geometry" />
        </mxCell>
        <mxCell id="0D1AlHed-BKCbmiTgBeb-31" value="" style="edgeStyle=none;rounded=0;orthogonalLoop=1;jettySize=auto;html=1;fillColor=#9E9E9E;" edge="1" parent="WIyWlLk6GJQsqaUBKTNV-1" source="0D1AlHed-BKCbmiTgBeb-15" target="0D1AlHed-BKCbmiTgBeb-11">
          <mxGeometry relative="1" as="geometry" />
        </mxCell>
        <mxCell id="0D1AlHed-BKCbmiTgBeb-15" value="Gruppo di Lavoro&lt;br&gt;Area Marittima" style="rounded=0;whiteSpace=wrap;html=1;fillColor=#fff2cc;strokeColor=#d6b656;" vertex="1" parent="WIyWlLk6GJQsqaUBKTNV-1">
          <mxGeometry x="380" y="295" width="140" height="50" as="geometry" />
        </mxCell>
        <mxCell id="0D1AlHed-BKCbmiTgBeb-16" value="" style="shape=flexArrow;endArrow=classic;html=1;entryX=1;entryY=0.5;entryDx=0;entryDy=0;exitX=0;exitY=0.5;exitDx=0;exitDy=0;endWidth=33.793103448275865;endSize=5.620689655172415;width=20;strokeColor=none;fillColor=#9E9E9E;" edge="1" parent="WIyWlLk6GJQsqaUBKTNV-1" source="0D1AlHed-BKCbmiTgBeb-15" target="0D1AlHed-BKCbmiTgBeb-11">
          <mxGeometry width="50" height="50" relative="1" as="geometry">
            <mxPoint x="490" y="380" as="sourcePoint" />
            <mxPoint x="410" y="310" as="targetPoint" />
          </mxGeometry>
        </mxCell>
        <mxCell id="0D1AlHed-BKCbmiTgBeb-23" value="" style="edgeStyle=none;rounded=0;orthogonalLoop=1;jettySize=auto;html=1;fillColor=#9E9E9E;" edge="1" parent="WIyWlLk6GJQsqaUBKTNV-1" source="0D1AlHed-BKCbmiTgBeb-17" target="0D1AlHed-BKCbmiTgBeb-22">
          <mxGeometry relative="1" as="geometry">
            <mxPoint x="175" y="660" as="targetPoint" />
          </mxGeometry>
        </mxCell>
        <mxCell id="0D1AlHed-BKCbmiTgBeb-17" value="GeoDB Monitoraggio" style="shape=cylinder;whiteSpace=wrap;html=1;boundedLbl=1;backgroundOutline=1;rounded=1;shadow=0;strokeWidth=1;glass=0;" vertex="1" parent="WIyWlLk6GJQsqaUBKTNV-1">
          <mxGeometry x="125" y="375" width="100" height="80" as="geometry" />
        </mxCell>
        <mxCell id="0D1AlHed-BKCbmiTgBeb-39" value="" style="edgeStyle=none;rounded=0;orthogonalLoop=1;jettySize=auto;html=1;fillColor=#9E9E9E;exitX=0.15;exitY=0.95;exitDx=0;exitDy=0;exitPerimeter=0;" edge="1" parent="WIyWlLk6GJQsqaUBKTNV-1" source="0D1AlHed-BKCbmiTgBeb-18" target="0D1AlHed-BKCbmiTgBeb-28">
          <mxGeometry relative="1" as="geometry" />
        </mxCell>
        <mxCell id="0D1AlHed-BKCbmiTgBeb-40" value="" style="edgeStyle=orthogonalEdgeStyle;orthogonalLoop=1;jettySize=auto;html=1;fillColor=#9E9E9E;curved=1;" edge="1" parent="WIyWlLk6GJQsqaUBKTNV-1" source="0D1AlHed-BKCbmiTgBeb-18" target="0D1AlHed-BKCbmiTgBeb-26">
          <mxGeometry relative="1" as="geometry">
            <Array as="points">
              <mxPoint x="140" y="440" />
            </Array>
          </mxGeometry>
        </mxCell>
        <mxCell id="0D1AlHed-BKCbmiTgBeb-18" value="GeoDB&lt;br&gt;Piani Spazio Marittimo" style="shape=cylinder;whiteSpace=wrap;html=1;boundedLbl=1;backgroundOutline=1;rounded=1;shadow=0;strokeWidth=1;glass=0;" vertex="1" parent="WIyWlLk6GJQsqaUBKTNV-1">
          <mxGeometry x="380" y="360" width="140" height="100" as="geometry" />
        </mxCell>
        <mxCell id="0D1AlHed-BKCbmiTgBeb-19" value="" style="endArrow=classic;startArrow=classic;html=1;fillColor=#9E9E9E;entryX=0;entryY=0.5;entryDx=0;entryDy=0;" edge="1" parent="WIyWlLk6GJQsqaUBKTNV-1" source="0D1AlHed-BKCbmiTgBeb-17" target="0D1AlHed-BKCbmiTgBeb-18">
          <mxGeometry width="50" height="50" relative="1" as="geometry">
            <mxPoint x="210" y="410" as="sourcePoint" />
            <mxPoint x="390" y="320" as="targetPoint" />
          </mxGeometry>
        </mxCell>
        <mxCell id="0D1AlHed-BKCbmiTgBeb-45" value="Compatibilità&amp;nbsp;&lt;br&gt;modello dati e API" style="edgeLabel;html=1;align=center;verticalAlign=middle;resizable=0;points=[];" vertex="1" connectable="0" parent="0D1AlHed-BKCbmiTgBeb-19">
          <mxGeometry x="-0.3495" y="1" relative="1" as="geometry">
            <mxPoint x="18.33" y="1" as="offset" />
          </mxGeometry>
        </mxCell>
        <mxCell id="0D1AlHed-BKCbmiTgBeb-55" value="" style="edgeStyle=none;orthogonalLoop=1;jettySize=auto;html=1;endArrow=classicThin;endFill=1;fillColor=#9E9E9E;fontColor=#3333FF;" edge="1" parent="WIyWlLk6GJQsqaUBKTNV-1" source="0D1AlHed-BKCbmiTgBeb-22" target="0D1AlHed-BKCbmiTgBeb-54">
          <mxGeometry relative="1" as="geometry" />
        </mxCell>
        <mxCell id="0D1AlHed-BKCbmiTgBeb-22" value="Report annuale Monitoraggio e pubblicazione dati" style="shape=document;whiteSpace=wrap;html=1;boundedLbl=1;rounded=1;shadow=0;strokeWidth=1;glass=0;fillColor=#f8cecc;strokeColor=#b85450;" vertex="1" parent="WIyWlLk6GJQsqaUBKTNV-1">
          <mxGeometry x="182.5" y="640" width="120" height="80" as="geometry" />
        </mxCell>
        <mxCell id="0D1AlHed-BKCbmiTgBeb-24" value="Gruppo di Lavoro&lt;br&gt;Area Marittima" style="rounded=0;whiteSpace=wrap;html=1;fillColor=#fff2cc;strokeColor=#d6b656;" vertex="1" parent="WIyWlLk6GJQsqaUBKTNV-1">
          <mxGeometry x="380" y="590" width="140" height="40" as="geometry" />
        </mxCell>
        <mxCell id="0D1AlHed-BKCbmiTgBeb-25" value="Autorità Competente" style="rounded=0;whiteSpace=wrap;html=1;fillColor=#fff2cc;strokeColor=#d6b656;" vertex="1" parent="WIyWlLk6GJQsqaUBKTNV-1">
          <mxGeometry x="380" y="660" width="140" height="40" as="geometry" />
        </mxCell>
        <mxCell id="0D1AlHed-BKCbmiTgBeb-26" value="Report tematici,&lt;br&gt;mappe" style="shape=document;whiteSpace=wrap;html=1;boundedLbl=1;rounded=1;shadow=0;strokeWidth=1;glass=0;" vertex="1" parent="WIyWlLk6GJQsqaUBKTNV-1">
          <mxGeometry x="40" y="545" width="120" height="80" as="geometry" />
        </mxCell>
        <mxCell id="0D1AlHed-BKCbmiTgBeb-27" value="" style="edgeStyle=none;rounded=0;orthogonalLoop=1;jettySize=auto;html=1;fillColor=#9E9E9E;exitX=0.5;exitY=1;exitDx=0;exitDy=0;entryX=0.5;entryY=0;entryDx=0;entryDy=0;" edge="1" parent="WIyWlLk6GJQsqaUBKTNV-1" source="0D1AlHed-BKCbmiTgBeb-17" target="0D1AlHed-BKCbmiTgBeb-26">
          <mxGeometry relative="1" as="geometry">
            <mxPoint x="156.66666666666674" y="465" as="sourcePoint" />
            <mxPoint x="128.33333333333348" y="505" as="targetPoint" />
          </mxGeometry>
        </mxCell>
        <mxCell id="0D1AlHed-BKCbmiTgBeb-28" value="Report singole aree marittime o subaree&amp;nbsp;" style="shape=document;whiteSpace=wrap;html=1;boundedLbl=1;rounded=1;shadow=0;strokeWidth=1;glass=0;" vertex="1" parent="WIyWlLk6GJQsqaUBKTNV-1">
          <mxGeometry x="197.5" y="505" width="105" height="75" as="geometry" />
        </mxCell>
        <mxCell id="0D1AlHed-BKCbmiTgBeb-29" value="" style="edgeStyle=none;rounded=0;orthogonalLoop=1;jettySize=auto;html=1;fillColor=#9E9E9E;entryX=0.5;entryY=0;entryDx=0;entryDy=0;exitX=0.75;exitY=1;exitDx=0;exitDy=0;exitPerimeter=0;" edge="1" target="0D1AlHed-BKCbmiTgBeb-28" parent="WIyWlLk6GJQsqaUBKTNV-1" source="0D1AlHed-BKCbmiTgBeb-17">
          <mxGeometry relative="1" as="geometry">
            <mxPoint x="275" y="370" as="sourcePoint" />
            <mxPoint x="228.33333333333348" y="420" as="targetPoint" />
          </mxGeometry>
        </mxCell>
        <mxCell id="0D1AlHed-BKCbmiTgBeb-30" value="Regioni" style="rounded=0;whiteSpace=wrap;html=1;fillColor=#fff2cc;strokeColor=#d6b656;" vertex="1" parent="WIyWlLk6GJQsqaUBKTNV-1">
          <mxGeometry x="380" y="505" width="140" height="40" as="geometry" />
        </mxCell>
        <mxCell id="0D1AlHed-BKCbmiTgBeb-33" value="" style="shape=flexArrow;endArrow=classic;html=1;fillColor=#9E9E9E;strokeColor=none;entryX=1;entryY=0.25;entryDx=0;entryDy=0;exitX=0;exitY=0.5;exitDx=0;exitDy=0;" edge="1" parent="WIyWlLk6GJQsqaUBKTNV-1" source="0D1AlHed-BKCbmiTgBeb-30" target="0D1AlHed-BKCbmiTgBeb-28">
          <mxGeometry width="50" height="50" relative="1" as="geometry">
            <mxPoint x="340" y="600" as="sourcePoint" />
            <mxPoint x="390" y="530" as="targetPoint" />
          </mxGeometry>
        </mxCell>
        <mxCell id="0D1AlHed-BKCbmiTgBeb-35" value="" style="shape=flexArrow;endArrow=classic;html=1;fillColor=#9E9E9E;strokeColor=none;entryX=1;entryY=0.5;entryDx=0;entryDy=0;exitX=0;exitY=0.5;exitDx=0;exitDy=0;edgeStyle=entityRelationEdgeStyle;" edge="1" parent="WIyWlLk6GJQsqaUBKTNV-1" source="0D1AlHed-BKCbmiTgBeb-25" target="0D1AlHed-BKCbmiTgBeb-22">
          <mxGeometry width="50" height="50" relative="1" as="geometry">
            <mxPoint x="360" y="680" as="sourcePoint" />
            <mxPoint x="310" y="680" as="targetPoint" />
          </mxGeometry>
        </mxCell>
        <mxCell id="0D1AlHed-BKCbmiTgBeb-36" value="" style="shape=flexArrow;endArrow=classic;html=1;fillColor=#9E9E9E;strokeColor=none;exitX=0;exitY=0.5;exitDx=0;exitDy=0;" edge="1" parent="WIyWlLk6GJQsqaUBKTNV-1" source="0D1AlHed-BKCbmiTgBeb-24" target="0D1AlHed-BKCbmiTgBeb-26">
          <mxGeometry width="50" height="50" relative="1" as="geometry">
            <mxPoint x="370" y="630" as="sourcePoint" />
            <mxPoint x="320" y="630" as="targetPoint" />
          </mxGeometry>
        </mxCell>
        <mxCell id="0D1AlHed-BKCbmiTgBeb-38" value="" style="shape=flexArrow;endArrow=classic;html=1;fillColor=#9E9E9E;strokeColor=none;entryX=0.5;entryY=0;entryDx=0;entryDy=0;exitX=0.5;exitY=1;exitDx=0;exitDy=0;" edge="1" parent="WIyWlLk6GJQsqaUBKTNV-1" source="0D1AlHed-BKCbmiTgBeb-24" target="0D1AlHed-BKCbmiTgBeb-25">
          <mxGeometry width="50" height="50" relative="1" as="geometry">
            <mxPoint x="370" y="690" as="sourcePoint" />
            <mxPoint x="320" y="690" as="targetPoint" />
          </mxGeometry>
        </mxCell>
        <mxCell id="0D1AlHed-BKCbmiTgBeb-47" value="" style="edgeStyle=none;rounded=0;orthogonalLoop=1;jettySize=auto;html=1;" edge="1" parent="WIyWlLk6GJQsqaUBKTNV-1" source="0D1AlHed-BKCbmiTgBeb-2" target="0D1AlHed-BKCbmiTgBeb-11">
          <mxGeometry relative="1" as="geometry">
            <mxPoint x="119.64285714285711" y="220" as="sourcePoint" />
            <mxPoint x="152.8571428571429" y="280" as="targetPoint" />
          </mxGeometry>
        </mxCell>
        <mxCell id="0D1AlHed-BKCbmiTgBeb-49" value="Servizi&amp;nbsp;&lt;br&gt;interoperabili" style="edgeLabel;html=1;align=center;verticalAlign=middle;resizable=0;points=[];" vertex="1" connectable="0" parent="0D1AlHed-BKCbmiTgBeb-47">
          <mxGeometry x="-0.3614" relative="1" as="geometry">
            <mxPoint x="9.52" y="16.21" as="offset" />
          </mxGeometry>
        </mxCell>
        <mxCell id="0D1AlHed-BKCbmiTgBeb-52" value="" style="edgeStyle=orthogonalEdgeStyle;curved=1;orthogonalLoop=1;jettySize=auto;html=1;fillColor=#9E9E9E;fontColor=#3333FF;endArrow=none;endFill=0;strokeColor=#3333FF;" edge="1" parent="WIyWlLk6GJQsqaUBKTNV-1" source="0D1AlHed-BKCbmiTgBeb-51" target="0D1AlHed-BKCbmiTgBeb-50">
          <mxGeometry relative="1" as="geometry" />
        </mxCell>
        <mxCell id="0D1AlHed-BKCbmiTgBeb-51" value="&lt;b&gt;Accordi di cooperazione&lt;/b&gt;" style="text;html=1;strokeColor=none;fillColor=none;align=center;verticalAlign=middle;whiteSpace=wrap;rounded=0;fontColor=#3333FF;rotation=-90;" vertex="1" parent="WIyWlLk6GJQsqaUBKTNV-1">
          <mxGeometry x="460" y="230" width="90" height="20" as="geometry" />
        </mxCell>
        <mxCell id="0D1AlHed-BKCbmiTgBeb-53" value="" style="shape=flexArrow;endArrow=classic;html=1;fillColor=#9E9E9E;strokeColor=none;exitX=0;exitY=0.5;exitDx=0;exitDy=0;entryX=1;entryY=0.5;entryDx=0;entryDy=0;" edge="1" parent="WIyWlLk6GJQsqaUBKTNV-1" source="0D1AlHed-BKCbmiTgBeb-24" target="0D1AlHed-BKCbmiTgBeb-28">
          <mxGeometry width="50" height="50" relative="1" as="geometry">
            <mxPoint x="390" y="620" as="sourcePoint" />
            <mxPoint x="170" y="620" as="targetPoint" />
          </mxGeometry>
        </mxCell>
        <mxCell id="0D1AlHed-BKCbmiTgBeb-54" value="" style="whiteSpace=wrap;html=1;rounded=1;shadow=0;strokeColor=#b85450;strokeWidth=1;fillColor=#f8cecc;glass=0;" vertex="1" parent="WIyWlLk6GJQsqaUBKTNV-1">
          <mxGeometry x="30" y="650" width="120" height="60" as="geometry" />
        </mxCell>
      </root>
    </mxGraphModel>
  </diagram>
</mxfile>
